<svg width="100" height="124" viewBox="0 0 100 124" fill="none" xmlns="http://www.w3.org/2000/svg">
<circle cx="50" cy="50" r="50" transform="translate(0 4)" fill="url(#paint0_linear)"/>
<path d="M43.616 79.65C43.616 80.2767 44.1173 80.59 45.12 80.59C46.1853 80.59 48.034 79.9947 50.666 78.804C53.298 77.5507 55.6167 76.2973 57.622 75.044L60.63 73.164C60.6927 73.2893 60.724 73.54 60.724 73.916C60.724 74.292 60.442 74.6053 59.878 74.856C51.418 80.6213 45.5273 83.504 42.206 83.504C40.5767 83.504 39.762 82.6893 39.762 81.06C39.762 79.4307 41.1093 76.3287 43.804 71.754L60.348 42.99C60.348 42.802 60.2227 42.708 59.972 42.708C59.784 42.708 59.3767 43.0213 58.75 43.648C58.1233 44.212 52.3893 50.0087 41.548 61.038C30.7693 72.0673 24.44 78.5533 22.56 80.496C21.4947 81.7493 20.5547 82.376 19.74 82.376C19.0507 82.376 18.706 81.9687 18.706 81.154C18.706 79.274 22.8107 72.0987 31.02 59.628C39.292 47.0947 43.5847 40.076 43.898 38.572C43.898 38.384 43.804 38.29 43.616 38.29C43.4907 38.29 42.958 38.76 42.018 39.7C41.1407 40.5773 34.6547 47.314 22.56 59.91C10.4653 72.506 3.44667 79.9007 1.504 82.094C1.00267 82.47 0.47 82.658 -0.094 82.658C-0.720667 82.658 -1.034 82.376 -1.034 81.812C-1.034 81.3733 -0.752 80.684 -0.188 79.744C0.376 78.804 1.15933 77.4567 2.162 75.702C3.22733 73.9473 5.076 70.626 7.708 65.738C10.4027 60.85 12.7527 56.244 14.758 51.92C16.826 47.596 18.6747 42.9587 20.304 38.008C21.996 33.0573 22.842 29.0153 22.842 25.882C22.842 20.6807 20.586 18.08 16.074 18.08C10.8727 18.08 5.38933 19.584 -0.376 22.592C-6.204 25.5373 -10.9353 28.9527 -14.57 32.838C-18.2047 36.7233 -20.022 40.076 -20.022 42.896C-20.022 46.1547 -17.3587 47.784 -12.032 47.784C-6.768 47.784 -1.75467 46.1547 3.008 42.896C7.83333 39.5747 11.2487 36.034 13.254 32.274C13.5673 31.898 13.818 31.71 14.006 31.71C14.194 31.71 14.288 32.1487 14.288 33.026C14.288 33.8407 13.5987 35.282 12.22 37.35C10.8413 39.418 9.024 41.5173 6.768 43.648C4.57467 45.716 1.786 47.502 -1.598 49.006C-5.04467 50.51 -8.554 51.262 -12.126 51.262C-19.27 51.262 -22.842 48.912 -22.842 44.212C-22.842 41.6427 -21.714 38.7913 -19.458 35.658C-17.202 32.462 -14.2567 29.454 -10.622 26.634C-6.98733 23.814 -2.60067 21.464 2.538 19.584C7.73933 17.6413 12.9093 16.67 18.048 16.67C23.876 16.67 26.79 19.7093 26.79 25.788C26.79 28.9213 26.0067 32.8067 24.44 37.444C22.936 42.0813 21.1187 46.5933 18.988 50.98C14.664 59.5653 10.5907 66.8347 6.768 72.788L4.512 76.454C4.76267 76.3287 7.83333 73.1953 13.724 67.054C33.2133 46.8753 43.804 35.94 45.496 34.248C46.6867 34.248 47.4073 34.4047 47.658 34.718C47.9087 35.0313 48.034 35.2507 48.034 35.376V35.47C48.034 37.162 42.3627 46.9067 31.02 64.704C26.6333 71.5347 24.252 75.2633 23.876 75.89L23.03 77.77C23.5313 77.77 26.7587 74.6367 32.712 68.37C38.6653 62.0407 44.6813 55.7427 50.76 49.476C56.9013 43.1467 60.4107 39.982 61.288 39.982C61.664 39.982 62.0713 40.17 62.51 40.546C62.9487 40.8593 63.168 41.204 63.168 41.58C63.168 41.956 63.074 42.332 62.886 42.708L46.06 73.164C44.4307 76.172 43.616 78.334 43.616 79.65Z" transform="translate(29)" fill="#636363"/>
<defs>
<linearGradient id="paint0_linear" x2="1" gradientUnits="userSpaceOnUse" gradientTransform="translate(-27.25 25.25) scale(119.635) rotate(-27.1005)">
<stop stop-color="#0FC4C4"/>
<stop offset="1" stop-color="#0CEBEB"/>
</linearGradient>
</defs>
</svg>
