<svg width="400" height="310" viewBox="0 0 400 310" fill="none" xmlns="http://www.w3.org/2000/svg">
<path d="M399.439 306.522C399.733 308.346 398.325 310 396.478 310H312.701C311.166 310 309.878 308.841 309.717 307.314L290.665 126.316C290.546 125.182 288.927 125.099 288.692 126.214L250.502 307.618C250.209 309.006 248.985 310 247.566 310H152.434C151.016 310 149.791 309.006 149.499 307.618L111.308 126.214C111.074 125.099 109.455 125.182 109.335 126.316L90.2829 307.314C90.1222 308.841 88.8347 310 87.2994 310H3.52264C1.67518 310 0.266744 308.346 0.560921 306.522L49.5934 2.5223C49.8278 1.06863 51.0826 0 52.5551 0H147.658C149.034 0 150.234 0.936892 150.568 2.27239L199.03 196.119C199.283 197.129 200.718 197.129 200.97 196.119L249.432 2.27239C249.766 0.936887 250.966 0 252.342 0H347.445C348.918 0 350.173 1.06863 350.407 2.5223L399.439 306.522Z" fill="#334DD2"/>
<path d="M399.439 306.522C399.733 308.346 398.325 310 396.478 310H312.701C311.166 310 309.878 308.841 309.717 307.314L290.665 126.316C290.546 125.182 288.927 125.099 288.692 126.214L250.502 307.618C250.209 309.006 248.985 310 247.566 310H152.434C151.016 310 149.791 309.006 149.499 307.618L111.308 126.214C111.074 125.099 109.455 125.182 109.335 126.316L90.2829 307.314C90.1222 308.841 88.8347 310 87.2994 310H3.52264C1.67518 310 0.266744 308.346 0.560921 306.522L49.5934 2.5223C49.8278 1.06863 51.0826 0 52.5551 0H147.658C149.034 0 150.234 0.936892 150.568 2.27239L199.03 196.119C199.283 197.129 200.718 197.129 200.97 196.119L249.432 2.27239C249.766 0.936887 250.966 0 252.342 0H347.445C348.918 0 350.173 1.06863 350.407 2.5223L399.439 306.522Z" fill="url(#paint0_linear)"/>
<defs>
<linearGradient id="paint0_linear" x2="1" gradientUnits="userSpaceOnUse" gradientTransform="translate(-6467.39 6948.4) scale(1429.75 948.64) rotate(90)">
<stop stop-color="#3650D3"/>
<stop offset="1" stop-opacity="0"/>
</linearGradient>
</defs>
</svg>
