<svg width="112" height="76" viewBox="0 0 112 76" fill="none" xmlns="http://www.w3.org/2000/svg">
<path d="M-13.254 27.696C-13.254 26.944 -11.9067 26.286 -9.212 25.722C-6.58 25.0953 -4.512 24.782 -3.008 24.782C-1.56667 24.782 -0.282 25.9727 0.846 28.354C2.03667 30.9233 3.25867 33.9627 4.512 37.472C5.828 40.9813 6.45467 42.736 6.392 42.736C8.46 38.412 10.904 34.9967 13.724 32.49C16.544 29.9833 19.5833 28.73 22.842 28.73C25.098 28.73 27.1033 29.7953 28.858 31.926C30.6753 34.0567 32.148 36.72 33.276 39.916C35.4067 46.0573 37.0987 55.0187 38.352 66.8L39.668 82.592C39.7933 82.592 40.7333 78.8633 42.488 71.406C44.3053 63.9487 45.8093 57.9013 47 53.264C49.9453 41.7333 51.7 35.592 52.264 34.84C52.5147 34.276 53.768 33.618 56.024 32.866C58.28 32.114 59.9093 31.738 60.912 31.738C61.1627 31.738 61.288 32.0827 61.288 32.772L61.194 34.088C61.1313 34.9653 61.1 36.4067 61.1 38.412C61.1 40.3547 61.1627 42.5167 61.288 44.898C61.4133 47.2167 61.6953 50.2873 62.134 54.11C62.6353 57.9327 63.262 61.5673 64.014 65.014C64.8287 68.4607 65.9567 72.0327 67.398 75.73C68.902 79.3647 70.6253 82.5293 72.568 85.224C74.5733 87.856 77.08 90.0493 80.088 91.804C83.096 93.496 86.4487 94.342 90.146 94.342C91.9633 94.342 93.248 94.1853 94 93.872C94.752 93.5587 95.3473 93.2767 95.786 93.026C96.2873 92.7753 96.6007 92.6187 96.726 92.556C97.2273 92.556 97.478 92.8693 97.478 93.496C97.478 94.5613 95.598 95.7833 91.838 97.162C88.078 98.6033 84.9133 99.324 82.344 99.324C76.0773 99.324 70.6253 96.4413 65.988 90.676C61.4133 84.848 58.0607 77.5787 55.93 68.868C53.7993 60.0947 52.734 50.5693 52.734 40.292H52.264L40.138 88.89C39.8247 92.838 39.4487 95 39.01 95.376C36.2527 97.256 34.4667 98.196 33.652 98.196C32.9 98.196 32.4927 97.444 32.43 95.94C32.242 89.36 31.584 81.9653 30.456 73.756C29.3907 65.5467 28.294 58.904 27.166 53.828C26.038 48.752 24.534 44.428 22.654 40.856C20.774 37.2213 18.8 35.404 16.732 35.404C14.7267 35.404 12.878 36.2813 11.186 38.036C9.55667 39.7907 8.272 42.2347 7.332 45.368C8.33467 50.256 9.52533 57.9013 10.904 68.304C12.2827 78.644 12.972 87.0413 12.972 93.496C12.972 95.3133 12.408 96.7233 11.28 97.726C10.152 98.7913 9.05533 99.324 7.99 99.324C6.92467 99.324 5.85933 98.1333 4.794 95.752C3.72867 93.4333 2.82 90.018 2.068 85.506C1.37867 80.994 1.034 77.0147 1.034 73.568C1.034 70.1213 1.15933 66.2673 1.41 62.006C0.156667 53.1073 -1.75467 45.2427 -4.324 38.412C-5.20133 35.9053 -6.32933 33.712 -7.708 31.832C-9.14933 29.8893 -10.5907 28.8553 -12.032 28.73C-12.8467 28.6047 -13.254 28.26 -13.254 27.696Z" transform="translate(14 -24)" fill="#383535"/>
</svg>
